<svg viewBox="0 0 65 65">
  <path d="M46 65H12v-1a3 3 0 014-3h27a3 3 0 013 3v1zm-8-7H21l1-4h14l2 4zm18-6H2a2 2 0 01-2-3V9a2 2 0 012-2h25v4H7a2 2 0 00-3 2v30a2 2 0 003 2h45a2 2 0 002-2v-9h4v15a2 2 0 01-2 3zm-11-5v2h2v-2zm-5 0v2h3v-2zm-4 0v2h2v-2zm16-4H7V13h20v17a3 3 0 003 4h22v9zm-5-5v2h2v-2zM9 38v2h36v-2zm2-11v7h14V22h-5v-6H9v11zm53 4H30a1 1 0 01-1-1v-5h36v5a1 1 0 01-1 1zm-30-4v2h27v-2zm-12 4h-9v-4h7v-2h2v6zm-4-6h-7v-7h7v7zm47-3H29V1a1 1 0 011-1h34a1 1 0 011 1v21zM40 3v17l17-9-17-8z" fill="currentColor"/>
</svg>