<svg viewBox="0 0 79 65">
  <path d="M77 65H2a2 2 0 01-2-2V22h79v41a2 2 0 01-2 2zM53 37a2 2 0 00-1 0 2 2 0 000 4l7 7-7 7a2 2 0 000 3 2 2 0 003 0l9-9a2 2 0 000-3l-9-9a2 2 0 00-2 0zm-9 0a2 2 0 00-2 1l-9 17a2 2 0 000 2 2 2 0 001 1 2 2 0 001 1 2 2 0 002-2l9-17a2 2 0 000-2 2 2 0 00-1-1 2 2 0 00-1 0zm-18 0a2 2 0 00-2 0l-9 9a2 2 0 000 3l9 9a2 2 0 003 0 2 2 0 000-3l-7-7 7-7a2 2 0 000-4 2 2 0 00-1 0zm-14-9a2 2 0 100 5h55a2 2 0 100-5zm67-11H0V2a2 2 0 012-2h75a2 2 0 012 2v15zM67 7a2 2 0 103 2 2 2 0 00-3-2zm-9 0a2 2 0 102 2 2 2 0 00-2-2zm-9 0a2 2 0 102 2 2 2 0 00-2-2zM12 7a2 2 0 100 4h23a2 2 0 100-4z" fill="#fff"/>
</svg>